<?xml version="1.0" encoding="UTF-8" standalone="no"?>
<svg xmlns:dc="http://purl.org/dc/elements/1.1/" xmlns:cc="http://creativecommons.org/ns#" xmlns:rdf="http://www.w3.org/1999/02/22-rdf-syntax-ns#" xmlns:svg="http://www.w3.org/2000/svg" xmlns="http://www.w3.org/2000/svg" xmlns:sodipodi="http://sodipodi.sourceforge.net/DTD/sodipodi-0.dtd" xmlns:inkscape="http://www.inkscape.org/namespaces/inkscape" width="32px" height="32px" viewBox="0 0 32 32.000001" id="svg2" version="1.1" inkscape:version="0.91 r13725" sodipodi:docname="mail email send receive fail failed inbox.svg">
  <defs id="defs4"/>
  <sodipodi:namedview id="base" pagecolor="#ffffff" bordercolor="#666666" borderopacity="1.0" inkscape:pageopacity="0.0" inkscape:pageshadow="2" inkscape:zoom="15.839192" inkscape:cx="0.76645298" inkscape:cy="15.526767" inkscape:document-units="px" inkscape:current-layer="layer1" showgrid="true" units="px" inkscape:snap-bbox="true" inkscape:bbox-paths="true" inkscape:bbox-nodes="true" inkscape:snap-bbox-midpoints="true" inkscape:snap-bbox-edge-midpoints="true" inkscape:window-width="1366" inkscape:window-height="715" inkscape:window-x="-8" inkscape:window-y="-8" inkscape:window-maximized="1">
    <inkscape:grid type="xygrid" id="grid3358"/>
  </sodipodi:namedview>
  
  <g inkscape:label="Layer 1" inkscape:groupmode="layer" id="layer1" transform="translate(0,-1020.3622)">
    <path style="color:#000000;font-style:normal;font-variant:normal;font-weight:normal;font-stretch:normal;font-size:medium;line-height:normal;font-family:sans-serif;text-indent:0;text-align:start;text-decoration:none;text-decoration-line:none;text-decoration-style:solid;text-decoration-color:#000000;letter-spacing:normal;word-spacing:normal;text-transform:none;direction:ltr;block-progression:tb;writing-mode:lr-tb;baseline-shift:baseline;text-anchor:start;white-space:normal;clip-rule:nonzero;display:inline;overflow:visible;visibility:visible;opacity:1;isolation:auto;mix-blend-mode:normal;color-interpolation:sRGB;color-interpolation-filters:linearRGB;solid-color:#000000;solid-opacity:1;fill:#000000;fill-opacity:1;fill-rule:nonzero;stroke:none;stroke-width:1;stroke-linecap:round;stroke-linejoin:round;stroke-miterlimit:4;stroke-dasharray:none;stroke-dashoffset:1.29999995;stroke-opacity:1;color-rendering:auto;image-rendering:auto;shape-rendering:auto;text-rendering:auto;enable-background:accumulate" d="M 15.599609 10 L 6.5 10.021484 A 0.50005006 0.50005006 0 0 0 6.2597656 10.082031 A 0.50005 0.50005 0 0 0 6.2167969 10.109375 A 0.50005006 0.50005006 0 0 0 6.1777344 10.138672 A 0.50005 0.50005 0 0 0 6.1425781 10.173828 A 0.50005 0.50005 0 0 0 6.0800781 10.251953 A 0.50005006 0.50005006 0 0 0 6.0546875 10.294922 A 0.50005 0.50005 0 0 0 6.0078125 10.4375 A 0.50005006 0.50005006 0 0 0 6.0019531 10.486328 A 0.50005 0.50005 0 0 0 6 10.521484 L 6 21.910156 A 0.50005 0.50005 0 0 0 6.5 22.410156 L 19.455078 22.410156 C 20.25426 23.185321 21.338772 23.667969 22.535156 23.667969 C 24.980603 23.667969 26.972668 21.671103 26.972656 19.220703 C 26.972663 17.771821 26.266317 16.492973 25.191406 15.679688 L 25.191406 10.585938 A 0.50005006 0.50005006 0 0 0 24.699219 10.011719 L 15.599609 10 z M 8.2441406 11.021484 L 22.941406 11.021484 L 15.599609 15.615234 L 8.2441406 11.021484 z M 24.191406 11.417969 L 24.191406 15.101562 C 23.752228 14.923097 23.276407 14.824785 22.78125 14.796875 C 22.699539 14.786667 22.619059 14.769645 22.535156 14.769531 C 21.006562 14.769406 19.655911 15.550491 18.857422 16.734375 C 18.857139 16.734794 18.857705 16.735909 18.857422 16.736328 C 18.698131 16.972696 18.559507 17.224758 18.447266 17.490234 C 18.447041 17.490765 18.44749 17.491657 18.447266 17.492188 C 18.335147 17.757682 18.246598 18.035642 18.1875 18.324219 C 18.187373 18.324836 18.187626 18.325555 18.1875 18.326172 C 18.128525 18.614784 18.09763 18.913075 18.097656 19.21875 C 18.097656 19.219412 18.097656 19.220041 18.097656 19.220703 C 18.097656 19.22408 18.099602 19.227093 18.099609 19.230469 C 18.100629 19.44525 18.123683 19.654909 18.162109 19.861328 C 18.24361 20.419185 18.428389 20.939067 18.697266 21.410156 L 7 21.410156 L 7 11.421875 L 15.335938 16.628906 A 0.50005006 0.50005006 0 0 0 15.865234 16.628906 L 24.191406 11.417969 z M 22.535156 15.771484 C 22.749592 15.771484 22.95676 15.796614 23.160156 15.833984 C 23.214709 15.844221 23.268327 15.858215 23.322266 15.871094 C 23.465627 15.904747 23.604491 15.949048 23.740234 16 C 23.806813 16.025275 23.874455 16.046748 23.939453 16.076172 C 24.105465 16.150665 24.265319 16.23707 24.416016 16.335938 A 0.50005 0.50005 0 0 0 24.464844 16.363281 C 25.375706 16.982297 25.972662 18.028556 25.972656 19.220703 C 25.972666 21.132203 24.438546 22.667969 22.535156 22.667969 C 21.543014 22.667969 20.657757 22.246423 20.03125 21.576172 C 20.014182 21.557912 20.001046 21.53621 19.984375 21.517578 C 19.855655 21.374129 19.736737 21.223432 19.634766 21.0625 C 19.620675 21.040156 19.611245 21.014879 19.597656 20.992188 C 19.502436 20.833911 19.416168 20.670929 19.347656 20.5 C 19.322173 20.435829 19.30685 20.366813 19.285156 20.300781 C 19.23902 20.161809 19.192276 20.023218 19.164062 19.878906 C 19.126038 19.680252 19.104266 19.475133 19.101562 19.265625 C 19.101365 19.250302 19.097656 19.236076 19.097656 19.220703 C 19.097655 19.22005 19.097657 19.219404 19.097656 19.21875 C 19.097788 18.97985 19.122185 18.746419 19.167969 18.521484 C 19.213492 18.297092 19.280765 18.08099 19.367188 17.875 C 19.367411 17.874467 19.366963 17.87358 19.367188 17.873047 C 19.453732 17.667078 19.560661 17.4721 19.683594 17.289062 C 19.683875 17.288644 19.683312 17.287528 19.683594 17.287109 C 20.30044 16.370639 21.346081 15.771484 22.535156 15.771484 z M 22.529297 16.927734 A 0.50004997 0.50004997 0 0 0 22.035156 17.433594 L 22.035156 19.828125 A 0.50004997 0.50004997 0 1 0 23.035156 19.828125 L 23.035156 17.433594 A 0.50004997 0.50004997 0 0 0 22.529297 16.927734 z M 22.484375 20.505859 A 0.50064426 0.50064426 0 0 0 22.535156 21.505859 A 0.50004997 0.50004997 0 1 0 22.535156 20.505859 A 0.50004997 0.50004997 0 0 0 22.484375 20.505859 z " transform="translate(0,1020.3622)" id="path7379"/>
  </g>

	
	
	<metadata>
		<rdf:RDF xmlns:rdf="http://www.w3.org/1999/02/22-rdf-syntax-ns#" xmlns:rdfs="http://www.w3.org/2000/01/rdf-schema#" xmlns:dc="http://purl.org/dc/elements/1.1/">
			<rdf:Description about="https://iconscout.com/legal#licenses" dc:title="Mail, Email, Send, Receive, Fail, Failed, Inbox" dc:description="Mail, Email, Send, Receive, Fail, Failed, Inbox" dc:publisher="Iconscout" dc:date="2016-12-14" dc:format="image/svg+xml" dc:language="en">
				<dc:creator>
					<rdf:Bag>
						<rdf:li>Mohit Gandhi</rdf:li>
					</rdf:Bag>
				</dc:creator>
			</rdf:Description>
		</rdf:RDF>
    </metadata></svg>
