<?xml version="1.0" encoding="UTF-8" standalone="no"?>
<svg xmlns:dc="http://purl.org/dc/elements/1.1/" xmlns:cc="http://creativecommons.org/ns#" xmlns:rdf="http://www.w3.org/1999/02/22-rdf-syntax-ns#" xmlns:svg="http://www.w3.org/2000/svg" xmlns="http://www.w3.org/2000/svg" xmlns:sodipodi="http://sodipodi.sourceforge.net/DTD/sodipodi-0.dtd" xmlns:inkscape="http://www.inkscape.org/namespaces/inkscape" width="32px" height="32px" viewBox="0 0 32 32.000001" id="svg2" version="1.1" inkscape:version="0.91 r13725" sodipodi:docname="email mail star favorite like newsletter newsletter.svg">
  <defs id="defs4"/>
  <sodipodi:namedview id="base" pagecolor="#ffffff" bordercolor="#666666" borderopacity="1.0" inkscape:pageopacity="0.0" inkscape:pageshadow="2" inkscape:zoom="7.919596" inkscape:cx="19.767997" inkscape:cy="25.988933" inkscape:document-units="px" inkscape:current-layer="layer1" showgrid="true" units="px" inkscape:snap-bbox="true" inkscape:bbox-paths="true" inkscape:bbox-nodes="true" inkscape:snap-bbox-midpoints="true" inkscape:snap-bbox-edge-midpoints="true" inkscape:window-width="1366" inkscape:window-height="715" inkscape:window-x="-8" inkscape:window-y="-8" inkscape:window-maximized="1">
    <inkscape:grid type="xygrid" id="grid3358"/>
  </sodipodi:namedview>
  
  <g inkscape:label="Layer 1" inkscape:groupmode="layer" id="layer1" transform="translate(0,-1020.3622)">
    <path style="color:#000000;font-style:normal;font-variant:normal;font-weight:normal;font-stretch:normal;font-size:medium;line-height:normal;font-family:sans-serif;text-indent:0;text-align:start;text-decoration:none;text-decoration-line:none;text-decoration-style:solid;text-decoration-color:#000000;letter-spacing:normal;word-spacing:normal;text-transform:none;direction:ltr;block-progression:tb;writing-mode:lr-tb;baseline-shift:baseline;text-anchor:start;white-space:normal;clip-rule:nonzero;display:inline;overflow:visible;visibility:visible;opacity:1;isolation:auto;mix-blend-mode:normal;color-interpolation:sRGB;color-interpolation-filters:linearRGB;solid-color:#000000;solid-opacity:1;fill:#000000;fill-opacity:1;fill-rule:nonzero;stroke:none;stroke-width:1;stroke-linecap:round;stroke-linejoin:round;stroke-miterlimit:4;stroke-dasharray:none;stroke-dashoffset:1.29999995;stroke-opacity:1;color-rendering:auto;image-rendering:auto;shape-rendering:auto;text-rendering:auto;enable-background:accumulate" d="M 15.599609 10 L 6.5 10.021484 A 0.50005006 0.50005006 0 0 0 6.2597656 10.082031 A 0.50005 0.50005 0 0 0 6.2167969 10.109375 A 0.50005006 0.50005006 0 0 0 6.1777344 10.138672 A 0.50005 0.50005 0 0 0 6.1425781 10.173828 A 0.50005 0.50005 0 0 0 6.0800781 10.251953 A 0.50005006 0.50005006 0 0 0 6.0546875 10.294922 A 0.50005 0.50005 0 0 0 6.0078125 10.4375 A 0.50005006 0.50005006 0 0 0 6.0019531 10.486328 A 0.50005 0.50005 0 0 0 6 10.521484 L 6 21.910156 A 0.50005 0.50005 0 0 0 6.5 22.410156 L 19.095703 22.410156 L 18.931641 23.285156 A 0.53027868 0.53111555 0 0 0 19.693359 23.855469 L 22.423828 22.466797 L 25.115234 23.935547 A 0.53027868 0.53111555 0 0 0 25.894531 23.386719 L 25.419922 20.353516 L 27.646484 18.246094 A 0.53027868 0.53111555 0 0 0 27.367188 17.335938 L 25.191406 16.986328 L 25.191406 10.585938 A 0.50005006 0.50005006 0 0 0 24.699219 10.011719 L 15.599609 10 z M 8.2441406 11.021484 L 22.941406 11.021484 L 15.599609 15.615234 L 8.2441406 11.021484 z M 24.191406 11.417969 L 24.191406 16.533203 L 23.023438 14.076172 A 0.53027868 0.53111555 0 0 0 22.613281 13.777344 A 0.53027868 0.53111555 0 0 0 22.074219 14.0625 L 20.677734 16.794922 L 17.638672 17.191406 A 0.53027868 0.53111555 0 0 0 17.332031 18.089844 L 19.494141 20.267578 L 19.28125 21.410156 L 7 21.410156 L 7 11.421875 L 15.335938 16.628906 A 0.50005006 0.50005006 0 0 0 15.865234 16.628906 L 24.191406 11.417969 z M 22.527344 15.498047 L 22.527344 15.501953 L 23.501953 17.556641 A 0.53027868 0.53111555 0 0 0 23.896484 17.853516 L 26.134766 18.212891 L 24.490234 19.773438 A 0.53027868 0.53111555 0 0 0 24.330078 20.244141 L 24.681641 22.490234 L 22.689453 21.400391 A 0.53027868 0.53111555 0 0 0 22.193359 21.390625 L 20.171875 22.416016 L 20.587891 20.183594 A 0.53027868 0.53111555 0 0 0 20.441406 19.712891 L 18.837891 18.099609 L 21.089844 17.808594 A 0.53027868 0.53111555 0 0 0 21.494141 17.523438 L 22.527344 15.498047 z " transform="translate(0,1020.3622)" id="path4170-5"/>
  </g>

	
	
	<metadata>
		<rdf:RDF xmlns:rdf="http://www.w3.org/1999/02/22-rdf-syntax-ns#" xmlns:rdfs="http://www.w3.org/2000/01/rdf-schema#" xmlns:dc="http://purl.org/dc/elements/1.1/">
			<rdf:Description about="https://iconscout.com/legal#licenses" dc:title="Email, Mail, Star, Favorite, Like, Newsletter" dc:description="Email, Mail, Star, Favorite, Like, Newsletter" dc:publisher="Iconscout" dc:date="2016-12-14" dc:format="image/svg+xml" dc:language="en">
				<dc:creator>
					<rdf:Bag>
						<rdf:li>Mohit Gandhi</rdf:li>
					</rdf:Bag>
				</dc:creator>
			</rdf:Description>
		</rdf:RDF>
    </metadata></svg>
