<svg xmlns="http://www.w3.org/2000/svg" viewBox="0 0 48 48"><path d="M41,11H21.57L20.45,8.69A3,3,0,0,0,17.75,7H7a3,3,0,0,0-3,3V38a3,3,0,0,0,3,3H41a3,3,0,0,0,3-3V14A3,3,0,0,0,41,11Zm1,27a1,1,0,0,1-1,1H7a1,1,0,0,1-1-1V10A1,1,0,0,1,7,9H17.75a1,1,0,0,1,.9.56l2.79,5.75A3,3,0,0,0,24.14,17H39a1,1,0,0,0,0-2H24.14a1,1,0,0,1-.9-.56L22.54,13H41a1,1,0,0,1,1,1ZM24,22c-4.68,0-9.08,5.14-9.26,5.35a1,1,0,0,0,0,1.3C14.92,28.86,19.32,34,24,34s9.08-5.14,9.26-5.35a1,1,0,0,0,0-1.3C33.08,27.14,28.68,22,24,22Zm0,10c-2.88,0-5.89-2.72-7.14-4,1.25-1.28,4.26-4,7.14-4s5.89,2.72,7.14,4C29.89,29.28,26.88,32,24,32Zm-1.5-5h3v2h-3Z" data-name="16 View Folder"/></svg>