<svg xmlns="http://www.w3.org/2000/svg" viewBox="0 0 48 48"><path d="M41,11H21.57L20.45,8.69A3,3,0,0,0,17.75,7H7a3,3,0,0,0-3,3V38a3,3,0,0,0,3,3H41a3,3,0,0,0,3-3V14A3,3,0,0,0,41,11Zm1,27a1,1,0,0,1-1,1H7a1,1,0,0,1-1-1V10A1,1,0,0,1,7,9H17.75a1,1,0,0,1,.9.56l2.79,5.75A3,3,0,0,0,24.14,17H39a1,1,0,0,0,0-2H24.14a1,1,0,0,1-.9-.56L22.54,13H41a1,1,0,0,1,1,1ZM29.71,28.29a1,1,0,0,1,0,1.42l-5,5a1,1,0,0,1-1.42,0l-5-5a1,1,0,0,1,1.42-1.42L23,31.59V22a1,1,0,0,1,2,0v9.59l3.29-3.3A1,1,0,0,1,29.71,28.29Z" data-name="14 Download Folder"/></svg>