<svg xmlns="http://www.w3.org/2000/svg" viewBox="0 0 48 48"><path d="M41,11H21.57L20.45,8.69A3,3,0,0,0,17.75,7H7a3,3,0,0,0-3,3V38a3,3,0,0,0,3,3H41a3,3,0,0,0,3-3V14A3,3,0,0,0,41,11Zm1,27a1,1,0,0,1-1,1H7a1,1,0,0,1-1-1V10A1,1,0,0,1,7,9H17.75a1,1,0,0,1,.9.56l2.79,5.75A3,3,0,0,0,24.14,17H39a1,1,0,0,0,0-2H24.14a1,1,0,0,1-.9-.56L22.54,13H41a1,1,0,0,1,1,1ZM30,23H27V21a1,1,0,0,0-1-1H22a1,1,0,0,0-1,1v2H18a1,1,0,0,0,0,2h.09l.75,8.27a3,3,0,0,0,3,2.73h4.34a3,3,0,0,0,3-2.73L29.91,25H30a1,1,0,0,0,0-2Zm-7-1h2v1H23Zm4.17,11.09a1,1,0,0,1-1,.91H21.83a1,1,0,0,1-1-.91L20.1,25h7.8ZM23,32V28a1,1,0,0,1,2,0v4a1,1,0,0,1-2,0Z" data-name="21 Junk Folder"/></svg>