<svg xmlns="http://www.w3.org/2000/svg" viewBox="0 0 48 48"><path d="M41,11H21.57L20.45,8.69A3,3,0,0,0,17.75,7H7a3,3,0,0,0-3,3V38a3,3,0,0,0,3,3H41a3,3,0,0,0,3-3V14A3,3,0,0,0,41,11Zm1,27a1,1,0,0,1-1,1H7a1,1,0,0,1-1-1V10A1,1,0,0,1,7,9H17.75a1,1,0,0,1,.9.56l2.79,5.75A3,3,0,0,0,24.14,17H39a1,1,0,0,0,0-2H24.14a1,1,0,0,1-.9-.56L22.54,13H41a1,1,0,0,1,1,1ZM30,21.22a1,1,0,0,0-1.41,0l-9.2,9.19a1,1,0,0,0-.27.51l-.71,3.54a1,1,0,0,0,1,1.2l.2,0,3.54-.71a1,1,0,0,0,.51-.27l9.19-9.2a1,1,0,0,0,0-1.41ZM22.39,33l-1.77.35L21,31.61l5.44-5.44h0l1.42,1.42h0Zm6.85-6.86h0l-1.41-1.41h0l1.41-1.42,1.42,1.42ZM15,22a1,1,0,0,1,1-1h8a1,1,0,0,1,0,2H16A1,1,0,0,1,15,22Zm0,4a1,1,0,0,1,1-1h4a1,1,0,0,1,0,2H16A1,1,0,0,1,15,26Zm3,4a1,1,0,0,1-1,1H16a1,1,0,0,1,0-2h1A1,1,0,0,1,18,30Z" data-name="50 Edit Folder"/></svg>