<svg xmlns="http://www.w3.org/2000/svg" viewBox="0 0 48 48"><path d="M41,11H21.57L20.45,8.69A3,3,0,0,0,17.75,7H7a3,3,0,0,0-3,3V38a3,3,0,0,0,3,3H41a3,3,0,0,0,3-3V14A3,3,0,0,0,41,11Zm1,27a1,1,0,0,1-1,1H7a1,1,0,0,1-1-1V10A1,1,0,0,1,7,9H17.75a1,1,0,0,1,.9.56l2.79,5.75A3,3,0,0,0,24.14,17H39a1,1,0,0,0,0-2H24.14a1,1,0,0,1-.9-.56L22.54,13H41a1,1,0,0,1,1,1ZM24,20a8,8,0,1,0,8,8A8,8,0,0,0,24,20Zm0,14a6,6,0,1,1,6-6A6,6,0,0,1,24,34Zm3.71-3.71a1,1,0,0,1,0,1.42,1,1,0,0,1-1.42,0l-3-3A1,1,0,0,1,23,28V24a1,1,0,0,1,2,0v3.59Z" data-name="26 History Folder"/></svg>